<svg version="1.1" id="Layer_1" xmlns="http://www.w3.org/2000/svg" xmlns:xlink="http://www.w3.org/1999/xlink" x="0px" y="0px"
	 width="100%" viewBox="0 0 160 207" enable-background="new 0 0 160 207" xml:space="preserve">
<path fill="#000000" opacity="1.000000" stroke="none" 
	d="
M161.000000,86.000000 
	C161.000000,127.000000 161.000000,167.500000 161.000000,208.000000 
	C107.666664,208.000000 54.333332,208.000000 1.000000,208.000000 
	C1.000000,139.000000 1.000000,70.000000 1.000000,1.000000 
	C54.333332,1.000000 107.666664,1.000000 161.000000,1.000000 
	C161.000000,29.166666 161.000000,57.333332 161.000000,86.000000 
M41.979126,99.226196 
	C42.654484,93.452652 36.174099,97.953415 34.896549,93.675858 
	C36.494919,93.425461 38.006748,93.415260 39.326584,92.906754 
	C40.300018,92.531700 41.022839,91.506180 41.857323,90.770485 
	C41.036316,90.191673 40.246559,89.174934 39.388626,89.113716 
	C36.468704,88.905380 33.524734,89.034042 30.305809,89.034042 
	C30.305809,95.219788 30.305809,100.774467 30.305809,106.294891 
	C34.231346,106.904770 34.231346,106.904770 35.833046,99.956833 
	C37.821121,99.956833 39.941639,99.956833 42.014977,100.765114 
	C41.756550,102.648773 41.498119,104.532433 41.239689,106.416100 
	C41.636749,106.802902 42.033810,107.189705 42.430870,107.576508 
	C43.923447,106.414108 45.428471,105.267212 46.903576,104.083054 
	C47.692192,103.449982 48.617413,102.078545 49.149643,102.227135 
	C50.200058,102.520409 51.148460,103.536301 51.887215,104.455711 
	C52.335758,105.013939 52.312939,105.950905 52.493401,106.683334 
	C54.382153,106.683334 55.975014,106.683334 57.780861,106.683334 
	C56.393524,101.793274 55.343269,97.135742 53.669762,92.714096 
	C53.088863,91.179298 50.983513,89.300285 49.538452,89.269531 
	C48.055466,89.237976 46.060822,90.981972 45.129272,92.473129 
	C43.696266,94.766975 42.979805,97.508453 41.979126,99.226196 
M127.283737,89.028473 
	C123.997208,89.028473 120.710686,89.028473 117.320908,89.028473 
	C117.320908,95.354630 117.320908,100.929489 117.320908,106.931366 
	C119.038216,106.788948 120.400223,106.675995 121.662338,106.571320 
	C121.947174,104.175514 122.172295,102.281990 122.397415,100.388458 
	C122.756882,100.271690 123.116341,100.154915 123.475807,100.038147 
	C124.562325,102.206291 125.648842,104.374435 126.970497,107.011795 
	C130.642441,105.895721 136.038742,109.751724 138.304718,103.027405 
	C138.356796,102.872879 141.965714,103.227684 142.226364,103.952431 
	C143.334244,107.032822 145.146011,107.600212 148.610092,106.354973 
	C146.899292,100.685776 145.178741,94.984299 143.539169,89.551094 
	C138.580460,87.906700 136.185501,89.527092 135.232742,94.320007 
	C134.509583,97.958015 132.956039,101.430954 131.771988,104.977348 
	C131.229889,104.916832 130.687775,104.856323 130.145660,104.795815 
	C130.357193,101.639671 130.951218,98.446182 130.647980,95.340294 
	C130.440079,93.210899 128.984116,91.203354 127.283737,89.028473 
M85.991234,103.651382 
	C86.080742,102.356407 86.170258,101.061432 86.215538,100.406288 
	C87.719666,102.464943 89.344200,104.688408 90.968727,106.911858 
	C92.591408,104.895126 94.214081,102.878395 95.811302,100.893303 
	C95.950386,102.539711 96.111450,104.446198 96.277611,106.413048 
	C99.515549,107.569618 101.160568,106.918358 101.020523,103.285553 
	C100.885849,99.792198 101.255745,96.257912 100.847954,92.807320 
	C100.688965,91.462021 99.060051,89.329033 98.014336,89.276604 
	C96.469170,89.199127 94.486519,90.329269 93.362106,91.559387 
	C92.305397,92.715424 92.120277,94.668152 91.148941,97.405136 
	C89.454514,92.377022 89.372086,86.648628 82.303421,89.722260 
	C81.857178,95.222626 81.398514,100.876053 80.939850,106.529488 
	C81.470238,106.848122 82.000626,107.166763 82.531021,107.485405 
	C83.678078,106.473846 84.825142,105.462296 85.991234,103.651382 
M51.024357,167.346481 
	C51.868973,168.909500 52.494083,170.653061 53.601730,171.999725 
	C56.301517,175.282059 60.321896,174.941330 63.004337,173.095642 
	C65.042747,171.693100 66.402847,168.061371 66.488792,165.371155 
	C66.602821,161.801605 63.850925,159.520782 60.131344,159.026352 
	C55.472889,158.407104 53.133522,160.375351 51.024357,167.346481 
M28.592836,106.393623 
	C27.117384,101.380928 25.760511,96.327591 24.068344,91.389153 
	C23.721935,90.378204 22.090729,89.131332 21.101622,89.173134 
	C19.566818,89.237991 17.141378,89.953384 16.724424,91.026619 
	C14.800885,95.977737 13.441753,101.148132 11.880281,106.239922 
	C12.369509,106.678787 12.858736,107.117661 13.347963,107.556526 
	C14.861783,106.428375 16.943687,105.615166 17.777977,104.110283 
	C19.890369,100.299973 21.064739,101.783958 23.054295,104.199257 
	C24.138716,105.515739 26.274626,105.966080 28.592836,106.393623 
M74.017517,42.229359 
	C75.749207,49.231491 79.116249,48.729389 84.034538,47.560844 
	C86.113907,47.066811 88.255234,43.208141 88.750374,40.574589 
	C89.392502,37.159302 85.010834,33.939423 81.146362,33.995655 
	C76.254547,34.066833 73.937202,36.575130 74.017517,42.229359 
M103.028259,104.170792 
	C104.882347,109.666222 109.403763,106.025627 112.612595,106.845375 
	C113.171486,106.988152 114.102051,105.676079 114.860939,105.035934 
	C114.125259,104.371071 113.493546,103.413475 112.630585,103.106972 
	C111.179207,102.591507 109.580887,102.489769 108.044380,102.213982 
	C108.076363,101.671768 108.108353,101.129555 108.140335,100.587349 
	C109.461044,100.386215 110.848984,100.371307 112.081619,99.926239 
	C113.105400,99.556572 113.946442,98.680779 114.868431,98.029190 
	C113.966103,97.358521 113.150314,96.463699 112.139694,96.073494 
	C110.854958,95.577438 109.412331,95.490341 108.037773,95.226921 
	C108.073494,94.661163 108.109215,94.095406 108.144936,93.529648 
	C109.628365,93.340637 111.171249,93.338951 112.573448,92.893959 
	C113.446335,92.616951 114.106445,91.669449 114.862045,91.022858 
	C114.122353,90.364113 113.419647,89.193619 112.636429,89.137009 
	C109.574883,88.915710 106.487877,89.046638 103.560371,89.046638 
	C103.277649,90.319923 103.084969,90.795364 103.079796,91.272835 
	C103.036552,95.257782 103.027817,99.243111 103.028259,104.170792 
M66.819069,102.854500 
	C65.563652,100.796700 62.828960,97.466774 63.312534,96.904465 
	C65.258324,94.641830 68.199104,93.234871 70.772247,91.511749 
	C72.548515,89.135223 71.057549,87.980194 67.889778,88.002708 
	C61.743553,88.046402 57.893219,92.049126 58.003963,98.389030 
	C58.113060,104.634575 61.339165,107.203049 68.377228,107.044777 
	C71.428062,106.976173 72.720284,106.096725 71.523552,102.952995 
	C70.169502,102.952995 68.873940,102.952995 66.819069,102.854500 
M79.000000,97.520409 
	C78.996284,95.857788 78.935875,94.192970 79.000320,92.532997 
	C79.147804,88.734200 77.279144,88.470291 74.356201,89.678223 
	C74.356201,95.424408 74.356201,100.997116 74.356201,106.467575 
	C77.575333,107.513779 79.216476,106.840950 79.007324,103.463081 
	C78.904778,101.807037 78.996307,100.138985 79.000000,97.520409 
M99.475945,29.022978 
	C96.866768,31.446321 97.622787,34.276100 99.933540,35.695614 
	C101.574799,36.703846 105.185432,36.738316 106.400536,35.595268 
	C107.675964,34.395462 108.135162,30.628860 107.169022,29.141747 
	C105.703491,26.885950 102.696388,25.659719 99.475945,29.022978 
M65.821472,178.250595 
	C61.432076,180.712402 60.489796,184.885300 64.057030,186.796082 
	C65.415268,187.523621 67.820557,187.779251 68.966599,187.039078 
	C70.351952,186.144333 72.049210,183.380020 71.580551,182.464584 
	C70.649979,180.646866 68.327850,179.541580 65.821472,178.250595 
M97.592361,51.994503 
	C101.592407,52.796947 102.693413,49.677998 102.597076,47.133839 
	C102.531349,45.397884 100.246918,42.526958 98.743561,42.384151 
	C97.006149,42.219116 94.160027,44.087112 93.369423,45.799248 
	C92.109390,48.528027 93.127365,51.296032 97.592361,51.994503 
M61.088100,145.362000 
	C59.498844,141.656387 56.333691,142.436935 54.109547,143.790512 
	C52.824303,144.572708 51.735012,148.043655 52.420376,149.141037 
	C53.442215,150.777145 56.243706,152.426437 58.045670,152.193726 
	C60.930889,151.821121 63.007832,149.583054 61.088100,145.362000 
M83.385872,114.180405 
	C83.287140,115.151749 82.740608,116.479637 83.175636,117.025978 
	C84.367538,118.522911 85.972290,120.729218 87.413559,120.729179 
	C89.254272,120.729134 92.209816,119.162567 92.633553,117.683472 
	C93.090790,116.087433 91.635628,112.745071 90.178398,112.122719 
	C88.595695,111.446754 86.050026,113.025513 83.385872,114.180405 
M110.048279,69.593689 
	C107.854012,69.417572 104.676720,68.293129 103.707008,69.298332 
	C102.409058,70.643776 102.203003,73.805504 102.754646,75.857605 
	C103.039955,76.918922 106.745262,78.313713 107.546455,77.720970 
	C109.180466,76.512115 109.965279,74.093880 110.934914,72.093857 
	C111.163651,71.622055 110.738235,70.833122 110.048279,69.593689 
M74.053322,132.094742 
	C71.671722,132.186096 68.386040,131.236633 68.293961,134.923553 
	C68.246391,136.828308 69.527618,139.753922 71.017975,140.427704 
	C72.467247,141.082916 75.658356,140.056107 76.825432,138.691193 
	C78.942604,136.215164 77.584763,133.761597 74.053322,132.094742 
M106.008339,55.573681 
	C107.239914,57.041019 108.226929,59.241402 109.775665,59.758091 
	C111.169571,60.223125 113.768852,59.353573 114.797165,58.169830 
	C117.058311,55.566879 115.891922,52.688053 113.244667,51.176308 
	C109.494980,49.035019 107.263290,51.218960 106.008339,55.573681 
M54.005970,51.634514 
	C54.164536,56.540970 56.050438,58.999687 59.125648,57.758640 
	C60.720669,57.114952 62.579128,55.099319 62.757805,53.526199 
	C62.945747,51.871506 61.326267,48.560478 60.398060,48.524647 
	C58.306381,48.443897 56.153885,49.938675 54.005970,51.634514 
M128.586166,42.042175 
	C129.816803,42.359764 131.431808,43.323288 132.201065,42.865528 
	C134.011993,41.787930 135.419388,40.032139 136.990036,38.550735 
	C135.453186,37.035522 134.087967,34.493637 132.346466,34.202473 
	C127.601753,33.409195 126.113106,36.217232 128.586166,42.042175 
M61.281139,37.487789 
	C65.005501,40.880791 68.980812,40.593212 69.674324,36.689316 
	C69.971664,35.015457 69.299515,32.721268 68.218231,31.409029 
	C67.504044,30.542295 64.477135,30.216358 63.887299,30.884901 
	C62.487873,32.471050 61.922665,34.793217 61.281139,37.487789 
M87.086426,77.945496 
	C86.998375,83.236954 89.095123,85.935379 92.548706,84.605576 
	C93.939545,84.070023 95.712677,82.342369 95.780464,81.075340 
	C95.878548,79.241638 94.908638,76.017319 93.813942,75.748352 
	C91.904938,75.279297 89.553482,76.610977 87.086426,77.945496 
M70.071861,61.943226 
	C72.313957,65.228020 75.154236,66.345596 77.818550,62.875137 
	C78.842842,61.540916 79.047203,58.438931 78.166641,57.105816 
	C77.312973,55.813427 74.511810,55.094620 72.700256,55.301254 
	C69.292740,55.689930 70.028717,58.738270 70.071861,61.943226 
M74.890030,120.119766 
	C74.925194,119.463692 74.910957,118.800552 75.003624,118.152702 
	C75.571800,114.180092 73.493164,112.872078 69.908897,113.016296 
	C65.927719,113.176498 65.677292,115.831024 66.023270,118.839653 
	C66.436157,122.430244 69.151070,123.079384 74.890030,120.119766 
M63.879333,21.322525 
	C64.355545,21.771643 64.840424,22.612366 65.306473,22.602062 
	C67.320091,22.557545 70.609352,22.882374 71.068672,21.930826 
	C71.993790,20.014328 72.023102,17.051481 71.123436,15.127566 
	C70.674850,14.168301 66.544640,13.638268 65.539902,14.540360 
	C64.103699,15.829844 64.006279,18.610435 63.879333,21.322525 
M86.507759,17.008381 
	C83.162468,16.965050 81.186096,18.672304 81.701309,21.937923 
	C81.934677,23.417048 83.544640,25.397429 84.929840,25.810770 
	C87.096870,26.457413 90.035416,26.713053 90.785820,23.353426 
	C91.457634,20.345634 90.954361,17.764984 86.507759,17.008381 
M59.918800,125.994019 
	C58.588486,122.990036 55.838913,121.885948 53.502556,123.544746 
	C51.969097,124.633484 51.139221,127.798584 51.405647,129.850540 
	C51.527451,130.788681 55.026909,131.771561 57.038826,131.875427 
	C60.674240,132.063126 59.880882,129.051804 59.918800,125.994019 
M87.026375,63.344391 
	C87.848816,67.495758 91.159248,65.818771 93.474548,65.790443 
	C94.323036,65.780060 95.669548,64.001350 95.882309,62.860264 
	C96.415573,60.000214 95.656960,57.409050 92.183617,57.058926 
	C88.306610,56.668110 86.771454,58.819141 87.026375,63.344391 
M71.944611,79.681747 
	C72.921089,79.757332 74.104507,80.217720 74.830399,79.827354 
	C76.282524,79.046410 78.215858,78.005295 78.586105,76.688087 
	C78.966606,75.334419 78.174202,72.920471 77.058990,72.080360 
	C75.920883,71.223007 73.393715,71.044075 72.128685,71.746292 
	C68.767624,73.612000 69.645866,76.527847 71.944611,79.681747 
M53.137936,70.563873 
	C55.958210,71.555763 58.758656,71.275398 59.633366,68.242874 
	C60.092865,66.649826 59.170017,63.736233 57.878132,62.821026 
	C56.605282,61.919296 54.078094,62.788162 52.101254,62.880169 
	C52.248287,65.256279 52.395321,67.632393 53.137936,70.563873 
M73.971008,150.537018 
	C72.340103,151.375031 70.346031,151.905899 69.252747,153.198593 
	C68.800278,153.733597 69.911499,156.488495 70.982674,157.154617 
	C71.992493,157.782578 73.884171,156.992447 75.387909,156.826157 
	C75.109589,154.903091 74.831261,152.980026 73.971008,150.537018 
M58.616749,113.192978 
	C56.999939,112.720543 55.239864,111.655434 53.820213,111.998604 
	C52.972431,112.203545 51.974667,114.818832 52.316730,115.973770 
	C52.599709,116.929214 55.149464,118.178040 55.977200,117.785095 
	C57.273388,117.169777 57.964230,115.279274 58.616749,113.192978 
M114.130203,41.477871 
	C115.746521,41.690399 117.362831,41.902927 118.979149,42.115456 
	C119.142715,40.568851 119.701660,38.908039 119.301903,37.524162 
	C119.104088,36.839348 116.413826,36.024975 116.106300,36.374249 
	C115.005402,37.624577 114.441109,39.347382 114.130203,41.477871 
M74.704514,192.122314 
	C73.822586,193.603104 72.610359,195.009277 72.249268,196.607712 
	C72.132866,197.122971 74.170288,198.493439 75.389610,198.793732 
	C76.046280,198.955429 77.871048,197.449844 77.769875,197.091904 
	C77.274643,195.339691 76.308884,193.720459 74.704514,192.122314 
M57.438690,76.032555 
	C54.509399,75.864067 53.213760,77.764633 54.306675,79.950844 
	C54.966949,81.271637 57.606731,81.602852 59.357082,82.378700 
	C59.738171,81.894119 60.119263,81.409538 60.500355,80.924950 
	C59.754547,79.325989 59.008736,77.727020 57.438690,76.032555 
z"/>
<path fill="#5C5A5E" opacity="1.000000" stroke="none" 
	d="
M127.684898,89.084900 
	C128.984116,91.203354 130.440079,93.210899 130.647980,95.340294 
	C130.951218,98.446182 130.357193,101.639671 130.145660,104.795815 
	C130.687775,104.856323 131.229889,104.916832 131.771988,104.977348 
	C132.956039,101.430954 134.509583,97.958015 135.232742,94.320007 
	C136.185501,89.527092 138.580460,87.906700 143.539169,89.551094 
	C145.178741,94.984299 146.899292,100.685776 148.610092,106.354973 
	C145.146011,107.600212 143.334244,107.032822 142.226364,103.952431 
	C141.965714,103.227684 138.356796,102.872879 138.304718,103.027405 
	C136.038742,109.751724 130.642441,105.895721 126.970497,107.011795 
	C125.648842,104.374435 124.562325,102.206291 123.475807,100.038147 
	C123.116341,100.154915 122.756882,100.271690 122.397415,100.388458 
	C122.172295,102.281990 121.947174,104.175514 121.662338,106.571320 
	C120.400223,106.675995 119.038216,106.788948 117.320908,106.931366 
	C117.320908,100.929489 117.320908,95.354630 117.320908,89.028473 
	C120.710686,89.028473 123.997208,89.028473 127.684898,89.084900 
z"/>
<path fill="#5C5A5E" opacity="1.000000" stroke="none" 
	d="
M85.981720,104.051056 
	C84.825142,105.462296 83.678078,106.473846 82.531021,107.485405 
	C82.000626,107.166763 81.470238,106.848122 80.939850,106.529488 
	C81.398514,100.876053 81.857178,95.222626 82.303421,89.722260 
	C89.372086,86.648628 89.454514,92.377022 91.148941,97.405136 
	C92.120277,94.668152 92.305397,92.715424 93.362106,91.559387 
	C94.486519,90.329269 96.469170,89.199127 98.014336,89.276604 
	C99.060051,89.329033 100.688965,91.462021 100.847954,92.807320 
	C101.255745,96.257912 100.885849,99.792198 101.020523,103.285553 
	C101.160568,106.918358 99.515549,107.569618 96.277611,106.413048 
	C96.111450,104.446198 95.950386,102.539711 95.811302,100.893303 
	C94.214081,102.878395 92.591408,104.895126 90.968735,106.911865 
	C89.344200,104.688408 87.719666,102.464943 86.215538,100.406288 
	C86.170258,101.061432 86.080742,102.356407 85.981720,104.051056 
z"/>
<path fill="#1070B6" opacity="1.000000" stroke="none" 
	d="
M51.025383,166.951263 
	C53.133522,160.375351 55.472889,158.407104 60.131344,159.026352 
	C63.850925,159.520782 66.602821,161.801605 66.488792,165.371155 
	C66.402847,168.061371 65.042747,171.693100 63.004337,173.095642 
	C60.321896,174.941330 56.301517,175.282059 53.601730,171.999725 
	C52.494083,170.653061 51.868973,168.909500 51.025383,166.951263 
z"/>
<path fill="#5C5A5E" opacity="1.000000" stroke="none" 
	d="
M41.959328,100.060013 
	C42.979805,97.508453 43.696266,94.766975 45.129272,92.473129 
	C46.060822,90.981972 48.055466,89.237976 49.538452,89.269531 
	C50.983513,89.300285 53.088863,91.179298 53.669762,92.714096 
	C55.343269,97.135742 56.393524,101.793274 57.780861,106.683334 
	C55.975014,106.683334 54.382153,106.683334 52.493401,106.683334 
	C52.312939,105.950905 52.335758,105.013939 51.887215,104.455711 
	C51.148460,103.536301 50.200058,102.520409 49.149643,102.227135 
	C48.617413,102.078545 47.692192,103.449982 46.903576,104.083054 
	C45.428471,105.267212 43.923447,106.414108 42.430870,107.576508 
	C42.033810,107.189705 41.636749,106.802902 41.239689,106.416100 
	C41.498119,104.532433 41.756550,102.648773 42.012199,100.386108 
	C42.009422,100.007111 41.959328,100.060013 41.959328,100.060013 
z"/>
<path fill="#5C5A5E" opacity="1.000000" stroke="none" 
	d="
M28.264576,106.600342 
	C26.274626,105.966080 24.138716,105.515739 23.054295,104.199257 
	C21.064739,101.783958 19.890369,100.299973 17.777977,104.110283 
	C16.943687,105.615166 14.861783,106.428375 13.347963,107.556526 
	C12.858736,107.117661 12.369509,106.678787 11.880281,106.239922 
	C13.441753,101.148132 14.800885,95.977737 16.724424,91.026619 
	C17.141378,89.953384 19.566818,89.237991 21.101622,89.173134 
	C22.090729,89.131332 23.721935,90.378204 24.068344,91.389153 
	C25.760511,96.327591 27.117384,101.380928 28.264576,106.600342 
z"/>
<path fill="#1070B6" opacity="1.000000" stroke="none" 
	d="
M74.010941,41.816864 
	C73.937202,36.575130 76.254547,34.066833 81.146362,33.995655 
	C85.010834,33.939423 89.392502,37.159302 88.750374,40.574589 
	C88.255234,43.208141 86.113907,47.066811 84.034538,47.560844 
	C79.116249,48.729389 75.749207,49.231491 74.010941,41.816864 
z"/>
<path fill="#5C5A5E" opacity="1.000000" stroke="none" 
	d="
M103.018463,103.699554 
	C103.027817,99.243111 103.036552,95.257782 103.079796,91.272835 
	C103.084969,90.795364 103.277649,90.319923 103.560371,89.046638 
	C106.487877,89.046638 109.574883,88.915710 112.636429,89.137009 
	C113.419647,89.193619 114.122353,90.364113 114.862045,91.022858 
	C114.106445,91.669449 113.446335,92.616951 112.573448,92.893959 
	C111.171249,93.338951 109.628365,93.340637 108.144936,93.529648 
	C108.109215,94.095406 108.073494,94.661163 108.037773,95.226921 
	C109.412331,95.490341 110.854958,95.577438 112.139694,96.073494 
	C113.150314,96.463699 113.966103,97.358521 114.868431,98.029190 
	C113.946442,98.680779 113.105400,99.556572 112.081619,99.926239 
	C110.848984,100.371307 109.461044,100.386215 108.140335,100.587349 
	C108.108353,101.129555 108.076363,101.671768 108.044380,102.213982 
	C109.580887,102.489769 111.179207,102.591507 112.630585,103.106972 
	C113.493546,103.413475 114.125259,104.371071 114.860947,105.035934 
	C114.102051,105.676079 113.171486,106.988152 112.612595,106.845375 
	C109.403763,106.025627 104.882347,109.666222 103.018463,103.699554 
z"/>
<path fill="#5C5A5E" opacity="1.000000" stroke="none" 
	d="
M67.198723,102.903748 
	C68.873940,102.952995 70.169502,102.952995 71.523552,102.952995 
	C72.720284,106.096725 71.428062,106.976173 68.377228,107.044777 
	C61.339165,107.203049 58.113060,104.634575 58.003963,98.389030 
	C57.893219,92.049126 61.743553,88.046402 67.889778,88.002708 
	C71.057549,87.980194 72.548515,89.135223 70.772247,91.511749 
	C68.199104,93.234871 65.258324,94.641830 63.312534,96.904465 
	C62.828960,97.466774 65.563652,100.796700 67.198723,102.903748 
z"/>
<path fill="#5C5A5E" opacity="1.000000" stroke="none" 
	d="
M42.035789,99.981972 
	C39.941639,99.956833 37.821121,99.956833 35.833046,99.956833 
	C34.231346,106.904770 34.231346,106.904770 30.305809,106.294891 
	C30.305809,100.774467 30.305809,95.219788 30.305809,89.034042 
	C33.524734,89.034042 36.468704,88.905380 39.388626,89.113716 
	C40.246559,89.174934 41.036316,90.191673 41.857323,90.770485 
	C41.022839,91.506180 40.300018,92.531700 39.326584,92.906754 
	C38.006748,93.415260 36.494919,93.425461 34.896549,93.675858 
	C36.174099,97.953415 42.654484,93.452652 41.969227,99.643105 
	C41.959328,100.060013 42.009422,100.007111 42.035789,99.981972 
z"/>
<path fill="#5C5A5E" opacity="1.000000" stroke="none" 
	d="
M79.000000,97.998383 
	C78.996307,100.138985 78.904778,101.807037 79.007324,103.463081 
	C79.216476,106.840950 77.575333,107.513779 74.356201,106.467575 
	C74.356201,100.997116 74.356201,95.424408 74.356201,89.678223 
	C77.279144,88.470291 79.147804,88.734200 79.000320,92.532997 
	C78.935875,94.192970 78.996284,95.857788 79.000000,97.998383 
z"/>
<path fill="#1070B6" opacity="1.000000" stroke="none" 
	d="
M99.751846,28.746426 
	C102.696388,25.659719 105.703491,26.885950 107.169022,29.141747 
	C108.135162,30.628860 107.675964,34.395462 106.400536,35.595268 
	C105.185432,36.738316 101.574799,36.703846 99.933540,35.695614 
	C97.622787,34.276100 96.866768,31.446321 99.751846,28.746426 
z"/>
<path fill="#2A245B" opacity="1.000000" stroke="none" 
	d="
M66.201126,178.196243 
	C68.327850,179.541580 70.649979,180.646866 71.580551,182.464584 
	C72.049210,183.380020 70.351952,186.144333 68.966599,187.039078 
	C67.820557,187.779251 65.415268,187.523621 64.057030,186.796082 
	C60.489796,184.885300 61.432076,180.712402 66.201126,178.196243 
z"/>
<path fill="#1B9590" opacity="1.000000" stroke="none" 
	d="
M97.184601,51.987186 
	C93.127365,51.296032 92.109390,48.528027 93.369423,45.799248 
	C94.160027,44.087112 97.006149,42.219116 98.743561,42.384151 
	C100.246918,42.526958 102.531349,45.397884 102.597076,47.133839 
	C102.693413,49.677998 101.592407,52.796947 97.184601,51.987186 
z"/>
<path fill="#1B9590" opacity="1.000000" stroke="none" 
	d="
M61.302361,145.696869 
	C63.007832,149.583054 60.930889,151.821121 58.045670,152.193726 
	C56.243706,152.426437 53.442215,150.777145 52.420376,149.141037 
	C51.735012,148.043655 52.824303,144.572708 54.109547,143.790512 
	C56.333691,142.436935 59.498844,141.656387 61.302361,145.696869 
z"/>
<path fill="#1070B6" opacity="1.000000" stroke="none" 
	d="
M83.655060,113.900757 
	C86.050026,113.025513 88.595695,111.446754 90.178398,112.122719 
	C91.635628,112.745071 93.090790,116.087433 92.633553,117.683472 
	C92.209816,119.162567 89.254272,120.729134 87.413559,120.729179 
	C85.972290,120.729218 84.367538,118.522911 83.175636,117.025978 
	C82.740608,116.479637 83.287140,115.151749 83.655060,113.900757 
z"/>
<path fill="#1070B6" opacity="1.000000" stroke="none" 
	d="
M110.331009,69.891876 
	C110.738235,70.833122 111.163651,71.622055 110.934914,72.093857 
	C109.965279,74.093880 109.180466,76.512115 107.546455,77.720970 
	C106.745262,78.313713 103.039955,76.918922 102.754646,75.857605 
	C102.203003,73.805504 102.409058,70.643776 103.707008,69.298332 
	C104.676720,68.293129 107.854012,69.417572 110.331009,69.891876 
z"/>
<path fill="#2A245B" opacity="1.000000" stroke="none" 
	d="
M74.447906,132.155197 
	C77.584763,133.761597 78.942604,136.215164 76.825432,138.691193 
	C75.658356,140.056107 72.467247,141.082916 71.017975,140.427704 
	C69.527618,139.753922 68.246391,136.828308 68.293961,134.923553 
	C68.386040,131.236633 71.671722,132.186096 74.447906,132.155197 
z"/>
<path fill="#1070B6" opacity="1.000000" stroke="none" 
	d="
M106.012604,55.175232 
	C107.263290,51.218960 109.494980,49.035019 113.244667,51.176308 
	C115.891922,52.688053 117.058311,55.566879 114.797165,58.169830 
	C113.768852,59.353573 111.169571,60.223125 109.775665,59.758091 
	C108.226929,59.241402 107.239914,57.041019 106.012604,55.175232 
z"/>
<path fill="#1070B6" opacity="1.000000" stroke="none" 
	d="
M54.016052,51.213432 
	C56.153885,49.938675 58.306381,48.443897 60.398060,48.524647 
	C61.326267,48.560478 62.945747,51.871506 62.757805,53.526199 
	C62.579128,55.099319 60.720669,57.114952 59.125648,57.758640 
	C56.050438,58.999687 54.164536,56.540970 54.016052,51.213432 
z"/>
<path fill="#1070B6" opacity="1.000000" stroke="none" 
	d="
M128.293518,41.757149 
	C126.113106,36.217232 127.601753,33.409195 132.346466,34.202473 
	C134.087967,34.493637 135.453186,37.035522 136.990036,38.550735 
	C135.419388,40.032139 134.011993,41.787930 132.201065,42.865528 
	C131.431808,43.323288 129.816803,42.359764 128.293518,41.757149 
z"/>
<path fill="#2A245B" opacity="1.000000" stroke="none" 
	d="
M61.150719,37.152851 
	C61.922665,34.793217 62.487873,32.471050 63.887299,30.884901 
	C64.477135,30.216358 67.504044,30.542295 68.218231,31.409029 
	C69.299515,32.721268 69.971664,35.015457 69.674324,36.689316 
	C68.980812,40.593212 65.005501,40.880791 61.150719,37.152851 
z"/>
<path fill="#1070B6" opacity="1.000000" stroke="none" 
	d="
M87.236954,77.566696 
	C89.553482,76.610977 91.904938,75.279297 93.813942,75.748352 
	C94.908638,76.017319 95.878548,79.241638 95.780464,81.075340 
	C95.712677,82.342369 93.939545,84.070023 92.548706,84.605576 
	C89.095123,85.935379 86.998375,83.236954 87.236954,77.566696 
z"/>
<path fill="#1070B6" opacity="1.000000" stroke="none" 
	d="
M70.043869,61.530064 
	C70.028717,58.738270 69.292740,55.689930 72.700256,55.301254 
	C74.511810,55.094620 77.312973,55.813427 78.166641,57.105816 
	C79.047203,58.438931 78.842842,61.540916 77.818550,62.875137 
	C75.154236,66.345596 72.313957,65.228020 70.043869,61.530064 
z"/>
<path fill="#1070B6" opacity="1.000000" stroke="none" 
	d="
M74.696434,120.509811 
	C69.151070,123.079384 66.436157,122.430244 66.023270,118.839653 
	C65.677292,115.831024 65.927719,113.176498 69.908897,113.016296 
	C73.493164,112.872078 75.571800,114.180092 75.003624,118.152702 
	C74.910957,118.800552 74.925194,119.463692 74.696434,120.509811 
z"/>
<path fill="#1B9590" opacity="1.000000" stroke="none" 
	d="
M63.608231,21.038383 
	C64.006279,18.610435 64.103699,15.829844 65.539902,14.540360 
	C66.544640,13.638268 70.674850,14.168301 71.123436,15.127566 
	C72.023102,17.051481 71.993790,20.014328 71.068672,21.930826 
	C70.609352,22.882374 67.320091,22.557545 65.306473,22.602062 
	C64.840424,22.612366 64.355545,21.771643 63.608231,21.038383 
z"/>
<path fill="#1070B6" opacity="1.000000" stroke="none" 
	d="
M86.909035,17.014938 
	C90.954361,17.764984 91.457634,20.345634 90.785820,23.353426 
	C90.035416,26.713053 87.096870,26.457413 84.929840,25.810770 
	C83.544640,25.397429 81.934677,23.417048 81.701309,21.937923 
	C81.186096,18.672304 83.162468,16.965050 86.909035,17.014938 
z"/>
<path fill="#1070B6" opacity="1.000000" stroke="none" 
	d="
M59.950584,126.411972 
	C59.880882,129.051804 60.674240,132.063126 57.038826,131.875427 
	C55.026909,131.771561 51.527451,130.788681 51.405647,129.850540 
	C51.139221,127.798584 51.969097,124.633484 53.502556,123.544746 
	C55.838913,121.885948 58.588486,122.990036 59.950584,126.411972 
z"/>
<path fill="#1070B6" opacity="1.000000" stroke="none" 
	d="
M87.016457,62.922607 
	C86.771454,58.819141 88.306610,56.668110 92.183617,57.058926 
	C95.656960,57.409050 96.415573,60.000214 95.882309,62.860264 
	C95.669548,64.001350 94.323036,65.780060 93.474548,65.790443 
	C91.159248,65.818771 87.848816,67.495758 87.016457,62.922607 
z"/>
<path fill="#2A245B" opacity="1.000000" stroke="none" 
	d="
M71.591217,79.482040 
	C69.645866,76.527847 68.767624,73.612000 72.128685,71.746292 
	C73.393715,71.044075 75.920883,71.223007 77.058990,72.080360 
	C78.174202,72.920471 78.966606,75.334419 78.586105,76.688087 
	C78.215858,78.005295 76.282524,79.046410 74.830399,79.827354 
	C74.104507,80.217720 72.921089,79.757332 71.591217,79.482040 
z"/>
<path fill="#1B9590" opacity="1.000000" stroke="none" 
	d="
M52.840149,70.286186 
	C52.395321,67.632393 52.248287,65.256279 52.101254,62.880173 
	C54.078094,62.788162 56.605282,61.919296 57.878132,62.821026 
	C59.170017,63.736233 60.092865,66.649826 59.633366,68.242874 
	C58.758656,71.275398 55.958210,71.555763 52.840149,70.286186 
z"/>
<path fill="#1070B6" opacity="1.000000" stroke="none" 
	d="
M74.261971,150.796997 
	C74.831261,152.980026 75.109589,154.903091 75.387909,156.826141 
	C73.884171,156.992447 71.992493,157.782578 70.982674,157.154617 
	C69.911499,156.488495 68.800278,153.733597 69.252747,153.198593 
	C70.346031,151.905899 72.340103,151.375031 74.261971,150.796997 
z"/>
<path fill="#1B9590" opacity="1.000000" stroke="none" 
	d="
M58.764118,113.560944 
	C57.964230,115.279274 57.273388,117.169777 55.977200,117.785095 
	C55.149464,118.178040 52.599709,116.929214 52.316730,115.973770 
	C51.974667,114.818832 52.972431,112.203545 53.820213,111.998604 
	C55.239864,111.655434 56.999939,112.720543 58.764118,113.560944 
z"/>
<path fill="#2A245B" opacity="1.000000" stroke="none" 
	d="
M113.902039,41.184681 
	C114.441109,39.347382 115.005402,37.624577 116.106300,36.374249 
	C116.413826,36.024975 119.104088,36.839348 119.301903,37.524162 
	C119.701660,38.908039 119.142715,40.568851 118.979149,42.115456 
	C117.362831,41.902927 115.746521,41.690399 113.902039,41.184681 
z"/>
<path fill="#1070B6" opacity="1.000000" stroke="none" 
	d="
M75.106979,192.088272 
	C76.308884,193.720459 77.274643,195.339691 77.769875,197.091904 
	C77.871048,197.449844 76.046280,198.955429 75.389610,198.793732 
	C74.170288,198.493439 72.132866,197.122971 72.249268,196.607712 
	C72.610359,195.009277 73.822586,193.603104 75.106979,192.088272 
z"/>
<path fill="#1070B6" opacity="1.000000" stroke="none" 
	d="
M57.850807,76.080307 
	C59.008736,77.727020 59.754547,79.325989 60.500355,80.924950 
	C60.119263,81.409538 59.738171,81.894119 59.357082,82.378700 
	C57.606731,81.602852 54.966949,81.271637 54.306675,79.950844 
	C53.213760,77.764633 54.509399,75.864067 57.850807,76.080307 
z"/>
</svg>