<?xml version="1.0" standalone="no"?>
<!DOCTYPE svg PUBLIC "-//W3C//DTD SVG 20010904//EN"
 "http://www.w3.org/TR/2001/REC-SVG-20010904/DTD/svg10.dtd">
<svg version="1.0" xmlns="http://www.w3.org/2000/svg"
 width="512.000000pt" height="512.000000pt" viewBox="0 0 512.000000 512.000000"
 preserveAspectRatio="xMidYMid meet">

<g transform="translate(0.000000,512.000000) scale(0.100000,-0.100000)"
fill="#000000" stroke="none">
<path d="M4170 5048 c-14 -7 -66 -36 -117 -65 -114 -66 -143 -107 -153 -217
l-6 -71 -433 -685 c-931 -1469 -1379 -2161 -1642 -2531 -181 -256 -379 -518
-400 -529 -26 -14 -132 -12 -152 2 -9 7 -30 51 -46 97 -69 190 -165 278 -348
316 -191 41 -350 0 -458 -117 -95 -102 -128 -206 -127 -398 2 -303 158 -545
447 -690 183 -92 357 -126 590 -117 309 12 582 127 763 322 39 42 102 131 151
211 47 77 146 240 221 364 153 252 426 726 762 1325 367 653 390 691 851 1420
432 683 444 701 493 727 65 35 119 97 133 152 13 54 14 186 1 240 -12 55 -58
117 -106 143 -23 13 -98 43 -168 68 -132 47 -204 56 -256 33z m205 -256 l100
-37 3 -66 3 -66 -48 -21 c-26 -11 -58 -31 -70 -44 -23 -25 -895 -1399 -976
-1538 -27 -47 -193 -341 -369 -655 -177 -313 -325 -575 -330 -582 -7 -9 -27 0
-75 33 -37 25 -98 61 -136 80 -42 22 -67 40 -64 48 3 6 44 73 92 147 182 279
586 912 1097 1718 l528 834 0 63 0 63 53 29 c28 16 61 30 72 30 11 1 65 -16
120 -36z m-1956 -2976 c52 -27 182 -108 209 -131 5 -5 -208 -371 -383 -660
-262 -432 -276 -454 -322 -505 -94 -105 -268 -196 -443 -232 -140 -29 -368
-22 -495 16 -317 95 -493 318 -471 596 9 104 22 145 62 190 46 51 87 63 188
58 150 -9 202 -50 251 -199 35 -105 78 -167 135 -196 97 -49 260 -55 358 -13
29 13 69 42 92 66 89 96 471 626 665 922 44 67 81 122 83 122 1 0 33 -15 71
-34z"/>
<path d="M3339 1375 c-222 -56 -396 -231 -450 -455 -18 -78 -16 -222 5 -294
33 -112 77 -187 156 -267 41 -41 100 -89 130 -106 243 -137 535 -98 731 97
126 125 182 262 181 440 -1 257 -161 482 -403 567 -91 32 -260 41 -350 18z
m291 -238 c40 -15 73 -38 121 -86 86 -86 112 -150 113 -272 1 -79 -2 -90 -37
-161 -43 -87 -98 -143 -186 -185 -49 -24 -68 -27 -156 -28 -89 0 -106 3 -155
27 -248 122 -306 433 -115 621 112 109 263 140 415 84z"/>
</g>
</svg>
