<?xml version="1.0" encoding="UTF-8"?>
<svg xmlns="http://www.w3.org/2000/svg" xmlns:xlink="http://www.w3.org/1999/xlink" width="613px" height="489px" viewBox="0 0 551 440" version="1.1">
<g id="surface1">
<path style=" stroke:none;fill-rule:nonzero;fill:rgb(100%,100%,100%);fill-opacity:1;" d="M 0 0 C 181.828125 0 363.660156 0 551 0 C 551 145.199219 273.246094 290.398438 273.246094 440 C 369.171875 440 187.339844 273.3125 0 220 C 0 294.800781 0 149.601562 0 0 Z M 0 0 "/>
<path style=" stroke:none;fill-rule:nonzero;fill:rgb(99.607843%,80.000001%,36.862746%);fill-opacity:1;" d="M 465.421875 253.039062 C 466.066406 253.140625 466.707031 253.246094 467.371094 253.355469 C 490.492188 257.15625 517.074219 267.023438 531.621094 286.515625 C 542.488281 301.976562 546.683594 318.824219 543.773438 337.621094 C 540.472656 354.839844 531.15625 370.160156 519.472656 382.933594 C 518.640625 383.847656 518.640625 383.847656 517.792969 384.777344 C 479.1875 425.152344 414.933594 431.230469 362.519531 432.441406 C 349.582031 432.65625 336.660156 432.371094 323.730469 431.976562 C 322.992188 431.953125 322.992188 431.953125 322.238281 431.929688 C 300.09375 431.265625 278 429.902344 255.898438 428.4375 C 239.164062 427.328125 222.488281 426.476562 205.71875 426.328125 C 205.117188 426.320312 204.515625 426.316406 203.894531 426.308594 C 198.292969 426.257812 192.6875 426.210938 187.085938 426.183594 C 139.695312 425.929688 88.199219 422.378906 45.792969 399.453125 C 45.027344 399.046875 44.261719 398.644531 43.472656 398.226562 C 26.933594 389.054688 11.902344 376.179688 5.957031 357.734375 C 1.898438 342.785156 4.671875 330.007812 11.972656 316.707031 C 13.695312 313.757812 15.789062 311.175781 18.015625 308.601562 C 18.722656 307.683594 18.722656 307.683594 19.441406 306.742188 C 30.367188 293.601562 48.769531 285.640625 65.308594 283.070312 C 66.097656 282.945312 66.886719 282.816406 67.703125 282.683594 C 70.679688 282.304688 73.605469 282.1875 76.605469 282.167969 C 77.460938 282.160156 77.460938 282.160156 78.332031 282.152344 C 92.179688 282.054688 105.632812 282.601562 119.359375 284.574219 C 120.535156 284.742188 121.710938 284.90625 122.890625 285.074219 C 123.515625 285.164062 124.144531 285.25 124.789062 285.34375 C 125.4375 285.433594 126.082031 285.527344 126.75 285.621094 C 127.410156 285.714844 128.070312 285.808594 128.75 285.902344 C 130.117188 286.097656 131.484375 286.289062 132.851562 286.484375 C 134.238281 286.679688 135.625 286.878906 137.007812 287.074219 C 147.183594 288.523438 157.363281 289.78125 167.589844 290.816406 C 168.1875 290.875 168.78125 290.9375 169.398438 291 C 173.234375 291.386719 177.074219 291.746094 180.914062 292.082031 C 181.804688 292.160156 182.699219 292.238281 183.617188 292.320312 C 192.402344 293 201.195312 293.015625 210.003906 293.019531 C 210.820312 293.019531 211.632812 293.023438 212.472656 293.023438 C 224.875 293.015625 236.964844 292.585938 249.226562 290.582031 C 249.90625 290.476562 250.582031 290.371094 251.28125 290.261719 C 256.132812 289.507812 260.9375 288.585938 265.742188 287.578125 C 266.519531 287.414062 267.296875 287.253906 268.101562 287.085938 C 286.34375 283.21875 304.167969 277.847656 322.042969 272.558594 C 323.261719 272.199219 324.480469 271.839844 325.699219 271.480469 C 327.386719 270.980469 329.078125 270.480469 330.769531 269.984375 C 336.367188 268.332031 341.964844 266.6875 347.566406 265.050781 C 348.484375 264.78125 349.402344 264.511719 350.351562 264.234375 C 387.59375 253.367188 426.734375 246.289062 465.421875 253.039062 Z M 465.421875 253.039062 "/>
<path style=" stroke:none;fill-rule:nonzero;fill:rgb(100%,50.588238%,56.078434%);fill-opacity:1;" d="M 261.269531 142.300781 C 277.050781 145.90625 293.496094 149.390625 309.722656 149.625 C 310.328125 149.632812 310.933594 149.644531 311.554688 149.652344 C 313.535156 149.675781 315.511719 149.691406 317.492188 149.703125 C 318.519531 149.707031 318.519531 149.707031 319.566406 149.710938 C 334.183594 149.738281 348.449219 148.148438 362.910156 146.136719 C 367.578125 145.488281 372.253906 144.914062 376.9375 144.351562 C 378.039062 144.21875 378.039062 144.21875 379.164062 144.082031 C 385.144531 143.371094 391.09375 142.902344 397.109375 142.664062 C 397.816406 142.613281 398.523438 142.566406 399.25 142.515625 C 409.839844 142.046875 420.167969 145.824219 428.5 152.234375 C 434.894531 158.128906 437.664062 166.324219 438.023438 174.808594 C 437.761719 184.761719 433.269531 191.929688 426.511719 198.894531 C 398.675781 224.972656 343.445312 237.058594 307.027344 245.527344 C 305.859375 245.808594 305.859375 245.808594 304.667969 246.089844 C 274.003906 253.378906 243.128906 256.957031 211.644531 256.980469 C 210.75 256.980469 209.851562 256.980469 208.925781 256.984375 C 194.945312 256.980469 181.261719 256.5 167.402344 254.539062 C 166.71875 254.445312 166.035156 254.355469 165.332031 254.261719 C 144.136719 251.339844 122.246094 244.183594 108.789062 226.527344 C 108.3125 225.859375 107.839844 225.191406 107.347656 224.503906 C 106.726562 223.65625 106.726562 223.65625 106.09375 222.789062 C 98.3125 211.097656 95.605469 195.210938 98.101562 181.476562 C 100.214844 171.683594 104.460938 163.644531 111.101562 156.175781 C 111.539062 155.671875 111.972656 155.164062 112.421875 154.640625 C 149.144531 114.804688 216.03125 131.9375 261.269531 142.300781 Z M 261.269531 142.300781 "/>
<path style=" stroke:none;fill-rule:nonzero;fill:rgb(19.215687%,47.843137%,60.392159%);fill-opacity:1;" d="M 320.539062 24.777344 C 329.527344 33.390625 333.914062 43.539062 334.394531 55.914062 C 334.632812 69.9375 330.648438 81.847656 321.058594 92.261719 C 310.472656 101.941406 299.039062 105.394531 285.023438 105.355469 C 284.164062 105.367188 283.304688 105.378906 282.414062 105.390625 C 268.253906 105.398438 256.40625 100.023438 246.28125 90.203125 C 237.179688 80.476562 233.730469 69.121094 233.859375 56.082031 C 234.257812 44.144531 239.484375 33.367188 247.726562 24.777344 C 268.628906 6.238281 299.792969 5.945312 320.539062 24.777344 Z M 320.539062 24.777344 "/>
</g>
</svg>
