<?xml version="1.0" encoding="UTF-8"?>
<svg version="1.1" xmlns="http://www.w3.org/2000/svg" width="364" height="293">
<path d="M0 0 C242.22 0 484.44 0 734 0 C734 193.38 734 386.76 734 586 C491.78 586 249.56 586 0 586 C0 392.62 0 199.24 0 0 Z " fill="#FFFFFF" transform="translate(0,0)"/>
<path d="M0 0 C0.85609863 0.13921875 1.71219727 0.2784375 2.59423828 0.421875 C33.39403303 5.48581842 68.8091996 18.6256766 88.18505859 44.58789062 C102.66122985 65.17570021 108.25154064 87.61611685 104.375 112.6484375 C99.97450355 135.58067649 87.5672336 155.98411689 72 173 C70.89205078 174.21429688 70.89205078 174.21429688 69.76171875 175.453125 C18.33926205 229.22578539 -67.25597735 237.32315993 -137.08056641 238.93579102 C-154.31347356 239.21810412 -171.52471069 238.83745578 -188.75 238.3125 C-189.73328718 238.28306746 -189.73328718 238.28306746 -190.73643875 238.25304031 C-220.23643242 237.36579685 -249.66732782 235.55286735 -279.11345768 233.60076427 C-301.40178103 232.12407983 -323.6175062 230.99048905 -345.95703125 230.7890625 C-346.75822325 230.78177942 -347.55941525 230.77449635 -348.38488579 230.76699257 C-355.84986472 230.70039804 -363.31484429 230.63668485 -370.7800293 230.59863281 C-433.90626447 230.25967865 -502.50788228 225.53412516 -559 195 C-560.01964844 194.45988281 -561.03929687 193.91976562 -562.08984375 193.36328125 C-584.12119207 181.14992977 -604.1432551 164.00201015 -612.06640625 139.4375 C-617.47320521 119.52962097 -613.77515854 102.50899047 -604.05078125 84.79736328 C-601.75520527 80.87077631 -598.96824779 77.42761948 -596 74 C-595.06027344 72.77603516 -595.06027344 72.77603516 -594.1015625 71.52734375 C-579.54630459 54.02315812 -555.03548862 43.42271389 -533 40 C-531.94820557 39.82944092 -530.89641113 39.65888184 -529.81274414 39.4831543 C-525.84391378 38.98022062 -521.94617392 38.82165172 -517.953125 38.796875 C-516.81388329 38.78628555 -516.81388329 38.78628555 -515.65162659 38.77548218 C-497.20562127 38.64355846 -479.28491464 39.37152922 -461 42 C-459.43218215 42.22254337 -457.86430757 42.4446874 -456.29638672 42.66650391 C-455.46143173 42.78468979 -454.62647675 42.90287567 -453.76622009 43.02464294 C-452.9036409 43.14670609 -452.04106171 43.26876923 -451.15234375 43.39453125 C-450.27369156 43.51889053 -449.39503937 43.64324982 -448.48976135 43.77137756 C-446.66798622 44.02921685 -444.84619333 44.28693075 -443.02438354 44.54452515 C-441.17832787 44.8060079 -439.33240001 45.06839462 -437.48660278 45.33169556 C-423.9320723 47.26199318 -410.37186068 48.93419634 -396.75 50.3125 C-395.95501099 50.39353973 -395.16002197 50.47457947 -394.34094238 50.55807495 C-389.23030144 51.07483116 -384.11733033 51.55447988 -379 52 C-377.81180664 52.1045752 -376.62361328 52.20915039 -375.39941406 52.31689453 C-363.69688618 53.22320003 -351.98190505 53.24243541 -340.25 53.25 C-339.16351166 53.25100708 -338.07702332 53.25201416 -336.95761108 53.25305176 C-320.4385304 53.2427086 -304.33332473 52.67136506 -288 50 C-287.09604492 49.86078125 -286.19208984 49.7215625 -285.26074219 49.578125 C-278.79950121 48.57081497 -272.39925816 47.34325051 -266 46 C-264.96294922 45.78424316 -263.92589844 45.56848633 -262.85742188 45.34619141 C-238.55314003 40.19497415 -214.80840927 33.04121506 -191 26 C-189.37698577 25.52072277 -187.75394037 25.04155108 -186.13085938 24.5625 C-183.87881716 23.89781015 -181.62677633 23.23311602 -179.37481689 22.56814575 C-171.91989533 20.36725414 -164.46141303 18.17877819 -157 16 C-155.77539062 15.64067383 -154.55078125 15.28134766 -153.2890625 14.91113281 C-103.67556596 0.44052966 -51.53659289 -8.98815227 0 0 Z " fill="#FECC5E" transform="translate(620,337)"/>
<path d="M0 0 C21.01928112 4.80454434 42.92686362 9.44185745 64.54516602 9.75610352 C65.35059845 9.76849564 66.15603088 9.78088776 66.98587036 9.7936554 C69.62156475 9.82610896 72.25696047 9.84492722 74.89282227 9.85766602 C76.26167068 9.86450912 76.26167068 9.86450912 77.65817261 9.87149048 C97.13152465 9.90588414 116.13430102 7.78736878 135.39624023 5.11108398 C141.6157098 4.24728231 147.84582476 3.48020302 154.08032227 2.73266602 C155.55021606 2.55453369 155.55021606 2.55453369 157.04980469 2.37280273 C165.01306357 1.42858676 172.94187113 0.80021536 180.95532227 0.48266602 C181.89633789 0.41821289 182.83735352 0.35375977 183.80688477 0.28735352 C197.91464612 -0.33688371 211.67181082 4.69356156 222.76782227 13.23266602 C231.28933211 21.07981177 234.97978563 31.99491388 235.45532227 43.29516602 C235.10988268 56.55141019 229.12386657 66.1005906 220.11938477 75.37329102 C183.04084191 110.10509066 109.46768603 126.19904955 60.95532227 137.48266602 C59.39998779 137.85319092 59.39998779 137.85319092 57.81323242 138.23120117 C16.96394728 147.93790113 -24.16893981 152.70486892 -66.10717773 152.73266602 C-67.30177612 152.73400543 -68.49637451 152.73534485 -69.72717285 152.73672485 C-88.35569231 152.7322014 -106.58345591 152.09648257 -125.04467773 149.48266602 C-125.95411133 149.35988281 -126.86354492 149.23709961 -127.80053711 149.1105957 C-156.03698349 145.21924034 -185.19818537 135.69195527 -203.12280273 112.17407227 C-203.75702148 111.2859082 -204.39124023 110.39774414 -205.04467773 109.48266602 C-205.87225586 108.35151367 -205.87225586 108.35151367 -206.71655273 107.19750977 C-217.0781135 91.62846357 -220.68466436 70.46858286 -217.36108398 52.17407227 C-214.54850332 39.13589563 -208.8906852 28.42808168 -200.04467773 18.48266602 C-199.46331055 17.80719727 -198.88194336 17.13172852 -198.28295898 16.43579102 C-149.36508086 -36.62047593 -60.26508769 -13.80232658 0 0 Z " fill="#FF818F" transform="translate(348.044677734375,189.517333984375)"/>
<path d="M0 0 C11.97205107 11.46918624 17.81485189 24.98380931 18.45385742 41.46679688 C18.77060493 60.14316857 13.46487821 76.00420312 0.6875 89.875 C-13.41418321 102.76890015 -28.64257227 107.36444749 -47.3125 107.3125 C-48.45912109 107.32861328 -49.60574219 107.34472656 -50.78710938 107.36132812 C-69.65444457 107.37200573 -85.43625069 100.21119598 -98.921875 87.13671875 C-111.04734894 74.17963045 -115.64432407 59.05843798 -115.47290039 41.69213867 C-114.94002677 25.79113209 -107.97779043 11.44059778 -97 0 C-69.15340311 -24.69038289 -27.63956509 -25.08279512 0 0 Z " fill="#317A9A" transform="translate(427,33)"/>
</svg>
