<?xml version="1.0" standalone="no"?>
<!DOCTYPE svg PUBLIC "-//W3C//DTD SVG 20010904//EN"
 "http://www.w3.org/TR/2001/REC-SVG-20010904/DTD/svg10.dtd">
<svg version="1.0" xmlns="http://www.w3.org/2000/svg"
 width="378.000000pt" height="133.000000pt" viewBox="0 0 378.000000 133.000000"
 preserveAspectRatio="xMidYMid meet">

<g transform="translate(0.000000,133.000000) scale(0.100000,-0.100000)"
fill="#000000" stroke="none">
<path d="M2847 1222 c-22 -24 -21 -65 1 -85 40 -36 102 -9 102 45 0 51 -69 78
-103 40z"/>
<path d="M275 1060 c-136 -54 -225 -198 -212 -343 7 -74 54 -174 104 -218 114
-99 286 -116 408 -38 25 16 48 29 50 29 3 0 5 -13 5 -30 0 -50 66 -69 94 -28
14 19 16 66 16 313 0 320 -3 335 -59 335 -35 0 -51 -17 -51 -52 0 -28 -13 -37
-25 -18 -4 6 -30 22 -58 37 -71 36 -198 43 -272 13z m226 -117 c78 -40 112
-93 117 -182 5 -76 -13 -123 -64 -175 -47 -46 -83 -60 -155 -61 -56 0 -73 4
-115 30 -71 44 -109 110 -109 189 2 174 171 277 326 199z"/>
<path d="M1064 1060 c-75 -30 -137 -89 -176 -168 l-33 -67 -3 -348 c-3 -318
-2 -351 14 -368 19 -21 46 -24 75 -9 18 10 19 23 19 200 0 105 2 190 5 190 2
0 21 -11 41 -25 90 -61 223 -70 325 -22 96 45 157 119 184 225 40 154 -36 313
-184 384 -66 32 -197 36 -267 8z m231 -116 c88 -45 136 -155 112 -252 -40
-153 -212 -218 -344 -129 -147 99 -123 319 42 394 42 19 141 12 190 -13z"/>
<path d="M1823 1060 c-70 -28 -145 -101 -180 -175 l-28 -60 -3 -349 c-3 -317
-2 -350 14 -367 19 -21 46 -24 75 -9 18 10 19 23 19 200 0 105 2 190 5 190 2
0 21 -11 41 -25 145 -99 358 -58 458 88 120 176 59 406 -133 499 -66 32 -197
36 -268 8z m232 -116 c84 -44 135 -152 114 -244 -46 -206 -328 -242 -420 -53
-57 117 -6 254 116 310 42 19 141 12 190 -13z"/>
<path d="M2849 1063 c-20 -23 -25 -576 -6 -613 18 -35 69 -40 91 -8 24 33 24
582 0 616 -18 26 -65 30 -85 5z"/>
<path d="M3256 1056 c-70 -30 -137 -92 -174 -161 -24 -45 -27 -61 -27 -150 0
-85 3 -106 23 -143 36 -67 98 -129 161 -159 47 -23 70 -27 141 -28 77 0 92 3
152 33 136 67 189 192 82 192 -25 0 -38 -7 -54 -30 -59 -82 -189 -110 -280
-60 -45 25 -110 100 -110 126 0 12 42 14 258 14 246 0 260 1 277 20 41 45 -17
216 -97 285 -68 57 -122 78 -213 82 -68 3 -89 0 -139 -21z m195 -97 c50 -15
105 -62 129 -110 11 -21 20 -41 20 -44 0 -3 -97 -5 -215 -5 -143 0 -215 3
-215 10 0 21 29 65 62 97 61 59 136 76 219 52z"/>
<path d="M2348 789 c-27 -15 -23 -65 6 -84 21 -14 55 -16 221 -13 181 3 198 5
211 22 19 27 18 42 -6 66 -19 19 -33 20 -217 20 -116 0 -205 -5 -215 -11z"/>
</g>
</svg>
