<?xml version="1.0" standalone="no"?>
<!DOCTYPE svg PUBLIC "-//W3C//DTD SVG 20010904//EN"
 "http://www.w3.org/TR/2001/REC-SVG-20010904/DTD/svg10.dtd">
<svg version="1.0" xmlns="http://www.w3.org/2000/svg"
 width="1280.000000pt" height="410.000000pt" viewBox="0 0 1280.000000 410.000000"
 preserveAspectRatio="xMidYMid meet">

<g transform="translate(0.000000,410.000000) scale(0.100000,-0.100000)"
fill="#000000" stroke="none">
<path d="M1960 3500 c-70 -5 -115 -19 -202 -66 -14 -8 -32 -14 -39 -14 -12 0
-96 -50 -133 -80 -19 -16 -118 -114 -141 -140 -33 -39 -65 -95 -65 -115 0 -12
-9 -30 -20 -40 -11 -10 -20 -25 -20 -34 0 -9 -9 -33 -20 -54 -18 -33 -20 -56
-20 -239 0 -193 1 -206 26 -280 15 -43 31 -78 37 -78 14 0 0 120 -18 157 -34
69 -40 273 -9 354 9 24 21 73 28 107 7 41 18 67 29 73 9 6 17 16 17 23 0 7 11
25 25 40 14 15 25 31 25 37 0 5 8 18 18 28 9 11 22 26 28 33 6 7 37 37 69 67
55 53 83 72 153 105 17 8 32 20 32 25 0 6 17 13 38 17 20 4 48 12 62 19 37 19
165 38 245 37 105 -2 331 -51 347 -75 6 -10 19 -17 98 -59 13 -7 40 -29 60
-49 77 -79 94 -79 171 -7 26 24 57 49 70 56 13 7 38 20 54 29 17 9 32 19 35
23 10 15 137 59 201 69 163 27 426 -6 516 -66 39 -26 64 -41 92 -55 28 -15
171 -155 171 -169 0 -5 4 -9 10 -9 5 0 26 -30 47 -67 20 -38 43 -74 50 -81 7
-7 15 -29 19 -50 3 -20 13 -48 22 -62 24 -38 25 -361 0 -410 -9 -19 -20 -56
-23 -82 -4 -27 -11 -48 -15 -48 -5 0 -16 -21 -26 -47 -10 -27 -20 -52 -24 -58
-4 -5 -14 -31 -24 -57 -10 -27 -22 -48 -27 -48 -5 0 -9 -5 -9 -10 0 -6 -11
-28 -25 -50 -14 -22 -25 -46 -25 -54 0 -8 -6 -19 -13 -23 -16 -10 -67 -79 -67
-91 0 -8 -54 -78 -130 -167 -19 -22 -97 -103 -175 -180 -117 -118 -186 -179
-325 -288 -40 -32 -132 -97 -200 -142 -41 -28 -77 -52 -80 -55 -3 -3 -14 -10
-25 -17 -136 -83 -154 -87 -220 -52 -41 22 -306 197 -315 208 -3 3 -32 26 -64
51 -33 25 -69 53 -80 62 -12 9 -43 36 -71 59 -76 63 -278 262 -347 342 -34 40
-67 78 -74 84 -7 7 -27 35 -45 63 -18 27 -36 50 -41 50 -5 0 -13 11 -18 25 -5
14 -14 25 -19 25 -6 0 -13 16 -17 35 -3 20 -14 41 -23 48 -19 14 -55 85 -71
140 -7 20 -15 37 -19 37 -4 0 -13 16 -20 35 -7 19 -17 35 -22 35 -30 0 23
-160 63 -188 10 -7 18 -20 18 -29 0 -21 49 -105 67 -116 7 -4 13 -14 13 -22 0
-7 11 -27 25 -43 14 -17 25 -33 25 -37 0 -4 11 -20 25 -37 27 -32 33 -79 12
-96 -8 -7 -95 -12 -227 -14 -180 -3 -221 -6 -250 -20 -53 -27 -116 -91 -130
-133 -15 -46 -9 -171 10 -207 61 -111 150 -244 215 -318 111 -128 281 -281
398 -358 119 -79 341 -187 446 -218 253 -74 325 -85 563 -91 264 -7 333 3 633
89 38 11 107 38 153 59 46 21 88 39 93 39 5 0 33 16 64 35 30 20 63 39 73 42
89 33 370 274 481 413 29 36 58 72 66 81 33 42 94 142 133 217 53 104 56 153
12 227 -44 74 -53 83 -116 115 l-58 30 -202 0 c-111 0 -209 3 -218 6 -33 13
-14 83 38 138 16 17 38 49 48 71 27 57 42 82 60 102 9 10 19 29 23 43 4 14 13
32 19 40 24 29 65 121 72 158 4 20 11 39 15 43 5 3 13 27 18 55 5 27 17 63 25
80 9 17 21 80 27 140 13 127 -2 279 -33 329 -10 16 -18 39 -19 50 -1 39 -101
193 -178 273 -26 29 -51 52 -55 52 -3 0 -29 17 -57 37 -58 41 -162 93 -188 93
-9 0 -27 7 -39 16 -36 25 -123 32 -308 25 -138 -5 -176 -9 -190 -22 -11 -9
-35 -19 -55 -23 -21 -4 -42 -13 -49 -21 -6 -7 -25 -17 -42 -20 -29 -7 -97 -47
-108 -64 -8 -12 -83 -51 -98 -51 -16 0 -72 29 -87 46 -28 29 -189 114 -217
114 -7 0 -31 10 -53 21 -35 19 -58 22 -175 23 -74 1 -169 -1 -210 -4z"/>
<path d="M4895 3465 c-121 -19 -179 -74 -192 -183 -4 -36 0 -60 16 -97 34 -78
70 -99 214 -125 67 -12 150 -33 184 -46 34 -13 65 -24 70 -24 26 0 79 -91 77
-130 -4 -73 -69 -159 -132 -175 -15 -4 -42 -13 -59 -22 -69 -32 -263 23 -311
89 -15 21 -62 24 -62 5 0 -27 50 -65 150 -113 105 -52 246 -43 346 21 78 50
114 110 114 192 0 131 -87 204 -259 216 -46 4 -89 11 -97 18 -7 6 -36 17 -64
24 -102 27 -149 90 -135 182 5 33 17 56 43 85 31 32 47 40 100 50 34 6 62 15
62 20 0 4 10 4 23 -1 12 -5 53 -14 91 -20 37 -7 80 -21 95 -31 14 -11 41 -24
59 -29 29 -9 32 -8 32 13 0 55 -217 103 -365 81z"/>
<path d="M6395 3465 c-73 -15 -141 -46 -178 -82 -80 -79 -106 -117 -112 -162
-4 -25 -13 -60 -21 -78 -18 -40 -18 -122 0 -187 8 -28 19 -69 25 -91 11 -44
104 -155 149 -178 15 -8 50 -27 77 -42 46 -27 58 -29 160 -29 96 -1 117 2 165
24 81 36 130 71 130 92 0 26 -27 22 -69 -11 -20 -15 -54 -31 -76 -35 -22 -4
-54 -14 -72 -23 -21 -10 -49 -13 -80 -10 -66 6 -172 37 -196 56 -48 40 -110
108 -123 136 -7 16 -18 37 -23 45 -16 26 -41 125 -41 161 0 71 67 234 112 276
107 97 217 131 350 108 69 -12 158 -51 174 -76 6 -11 54 -12 54 -1 -1 14 -36
49 -71 70 -66 40 -231 58 -334 37z"/>
<path d="M5673 3458 c-14 -24 -43 -112 -43 -135 0 -12 -5 -25 -11 -28 -16 -10
-65 -118 -72 -157 -3 -19 -17 -51 -30 -72 -14 -20 -31 -53 -37 -72 -19 -55 -5
-60 90 -34 81 21 84 21 154 4 39 -9 91 -30 115 -47 83 -57 162 -152 177 -214
4 -15 11 -34 17 -40 12 -17 47 -17 47 -1 0 19 -32 101 -46 118 -7 8 -18 35
-24 60 -7 25 -29 81 -49 125 -20 44 -47 107 -60 140 -12 33 -30 78 -41 100
-32 69 -70 164 -70 177 0 8 -11 30 -25 51 -20 28 -32 37 -55 37 -16 0 -32 -6
-37 -12z m87 -133 c6 -18 18 -39 26 -45 7 -7 14 -22 14 -34 0 -12 9 -39 20
-61 11 -22 20 -44 20 -49 0 -5 9 -29 21 -53 11 -23 19 -53 17 -65 -3 -20 -10
-23 -52 -26 -28 -2 -65 3 -87 12 -22 9 -63 16 -92 16 -29 0 -58 5 -65 12 -19
19 -14 71 12 109 13 19 27 56 31 82 4 26 11 47 15 47 5 0 11 14 15 31 7 32 57
71 81 62 7 -2 18 -20 24 -38z"/>
<path d="M5430 2841 c0 -4 -10 -24 -23 -42 -24 -36 -50 -117 -41 -131 12 -20
31 -4 53 44 27 59 40 138 22 138 -6 0 -11 -4 -11 -9z"/>
<path d="M6180 2114 c-279 -50 -460 -254 -460 -520 0 -150 44 -265 140 -368
58 -63 111 -98 196 -133 63 -26 80 -28 194 -28 l125 0 87 43 c104 51 198 139
245 229 30 57 63 192 63 257 0 53 -30 187 -52 231 -63 123 -190 230 -325 270
-51 16 -172 26 -213 19z m239 -129 c96 -45 168 -115 216 -210 28 -57 30 -65
29 -190 l0 -130 -37 -66 c-44 -78 -118 -157 -172 -183 -22 -11 -57 -28 -78
-39 -54 -27 -196 -29 -252 -3 -149 67 -193 103 -253 204 -40 66 -54 125 -54
230 1 91 11 132 53 207 46 81 97 133 162 167 96 48 134 57 223 54 69 -2 91 -8
163 -41z"/>
<path d="M7385 2109 c-34 -5 -95 -26 -142 -50 -112 -55 -190 -134 -246 -248
l-42 -86 0 -135 0 -135 48 -96 c60 -123 132 -194 256 -252 76 -35 94 -40 185
-44 117 -6 189 8 288 58 111 55 150 115 93 141 -21 10 -29 8 -48 -10 -12 -11
-62 -39 -111 -62 -84 -39 -94 -42 -185 -42 -53 0 -106 4 -116 10 -11 6 -46 23
-77 37 -69 31 -138 91 -171 148 -26 45 -61 149 -72 210 -16 95 49 269 131 351
124 124 328 160 482 86 23 -11 45 -20 49 -20 4 0 26 -14 47 -30 44 -33 80 -38
94 -13 13 22 -3 65 -31 83 -141 89 -284 122 -432 99z"/>
<path d="M10512 2106 c-166 -32 -303 -141 -381 -306 -35 -74 -36 -76 -36 -210
0 -122 2 -140 25 -190 99 -222 274 -340 507 -340 158 0 372 101 361 171 -4 28
-33 48 -52 34 -48 -36 -98 -64 -141 -79 -27 -11 -56 -24 -63 -29 -8 -6 -56
-10 -110 -10 -88 1 -104 4 -173 36 -101 47 -168 110 -213 200 -57 118 -68 198
-41 303 36 137 121 242 245 302 71 34 81 36 175 37 92 0 107 -3 180 -34 44
-18 93 -44 109 -58 18 -15 39 -23 55 -21 22 2 27 9 29 37 4 42 -13 58 -108
103 -134 62 -240 78 -368 54z"/>
<path d="M4693 2089 c-19 -19 -19 -978 0 -1003 12 -17 29 -18 218 -14 218 5
238 9 375 74 76 36 164 128 210 221 l39 78 0 145 c0 130 -2 150 -23 192 -65
137 -147 216 -284 275 l-83 35 -220 5 c-172 4 -223 2 -232 -8z m474 -106 c134
-50 210 -128 263 -271 50 -136 2 -320 -110 -426 -63 -60 -123 -89 -238 -115
-95 -22 -215 -26 -261 -9 -51 19 -50 17 -51 428 0 212 4 390 8 397 16 26 60
33 182 29 109 -3 135 -7 207 -33z"/>
<path d="M8110 2080 c-19 -19 -20 -33 -20 -494 l0 -475 26 -20 c26 -20 38 -21
348 -21 339 1 356 3 356 47 0 36 -36 41 -321 42 -266 1 -275 2 -291 22 -16 18
-18 43 -18 179 0 138 2 159 18 173 15 14 48 17 191 19 163 3 174 4 187 24 12
17 12 23 0 40 -13 17 -31 19 -191 24 -160 5 -178 7 -191 24 -20 28 -20 304 0
332 14 18 31 19 301 22 l286 3 12 26 c23 51 6 53 -350 53 -310 0 -324 -1 -343
-20z"/>
<path d="M9057 2083 c-16 -18 -17 -58 -17 -489 0 -409 2 -472 16 -492 18 -27
36 -28 57 -4 15 17 17 58 17 389 0 354 1 371 20 388 24 22 23 23 129 -121 44
-60 97 -131 119 -159 21 -27 54 -72 73 -100 19 -27 52 -73 74 -101 22 -28 49
-63 60 -78 11 -16 36 -49 56 -75 19 -25 50 -67 67 -93 41 -60 79 -82 113 -65
l24 13 3 492 2 492 -26 10 c-54 21 -54 21 -54 -382 0 -235 -4 -376 -10 -389
-22 -39 -47 -22 -137 99 -48 64 -97 130 -107 147 -11 16 -28 39 -38 50 -11 11
-44 54 -73 95 -29 41 -74 102 -99 135 -25 33 -62 83 -80 110 -87 127 -151 170
-189 128z"/>
<path d="M11256 2081 c-15 -17 -16 -60 -14 -499 3 -412 5 -483 18 -496 12 -13
19 -13 40 -3 l25 13 3 492 2 492 -26 10 c-32 13 -28 13 -48 -9z"/>
<path d="M11933 2085 c-24 -17 -48 -65 -93 -185 -15 -41 -39 -100 -53 -130
-25 -53 -71 -164 -125 -300 -14 -36 -38 -92 -53 -125 -15 -33 -37 -89 -49
-125 -12 -36 -26 -69 -31 -75 -14 -15 -10 -62 6 -69 41 -15 85 27 104 99 19
71 94 209 121 223 18 9 82 12 238 10 l214 -3 24 -30 c21 -26 104 -220 104
-243 0 -4 13 -21 30 -37 26 -25 33 -27 55 -17 33 15 33 48 0 113 -14 27 -37
82 -52 122 -14 40 -37 94 -50 121 -14 27 -31 71 -39 97 -8 26 -28 76 -45 110
-17 34 -37 83 -45 110 -8 26 -29 78 -48 116 -18 37 -37 83 -41 101 -11 51 -53
119 -78 126 -38 10 -72 7 -94 -9z m86 -147 c5 -13 21 -52 34 -88 14 -36 45
-114 70 -175 24 -60 47 -121 50 -135 12 -50 0 -55 -163 -59 -174 -4 -197 0
-211 36 -10 28 11 98 72 231 16 35 29 67 29 72 0 18 51 124 63 132 23 14 47 8
56 -14z"/>
</g>
</svg>
