<?xml version="1.0" encoding="UTF-8"?>
<!DOCTYPE svg PUBLIC "-//W3C//DTD SVG 1.1//EN" "http://www.w3.org/Graphics/SVG/1.1/DTD/svg11.dtd">
<svg xmlns="http://www.w3.org/2000/svg" version="1.1" width="160px" height="160px" style="shape-rendering:geometricPrecision; text-rendering:geometricPrecision; image-rendering:optimizeQuality; fill-rule:evenodd; clip-rule:evenodd" xmlns:xlink="http://www.w3.org/1999/xlink">
<g><path style="opacity:1" fill="#1020ae" d="M -0.5,-0.5 C 52.8333,-0.5 106.167,-0.5 159.5,-0.5C 159.5,52.8333 159.5,106.167 159.5,159.5C 106.167,159.5 52.8333,159.5 -0.5,159.5C -0.5,106.167 -0.5,52.8333 -0.5,-0.5 Z"/></g>
<g><path style="opacity:1" fill="#cfcde3" d="M 115.5,47.5 C 116.675,47.281 117.675,47.6143 118.5,48.5C 116.948,49.7979 115.948,49.4646 115.5,47.5 Z"/></g>
<g><path style="opacity:1" fill="#eceff3" d="M 25.5,50.5 C 28.2469,50.1866 30.9135,50.52 33.5,51.5C 31.8333,52.1667 30.1667,52.8333 28.5,53.5C 33.6945,55.0583 33.6945,56.0583 28.5,56.5C 28.6567,57.8734 28.49,59.2068 28,60.5C 27.3333,61.8333 26.6667,61.8333 26,60.5C 25.5017,57.1832 25.335,53.8499 25.5,50.5 Z"/></g>
<g><path style="opacity:1" fill="#e9ecf2" d="M 92.5,50.5 C 94.7925,50.2436 96.9592,50.5769 99,51.5C 99.6877,52.3317 99.521,52.9984 98.5,53.5C 93.8877,51.9477 92.5544,53.4477 94.5,58C 95.8989,58.5946 97.2322,58.4279 98.5,57.5C 99.7112,58.2739 99.7112,59.1072 98.5,60C 90.424,60.8047 88.424,57.638 92.5,50.5 Z"/></g>
<g><path style="opacity:1" fill="#eeeff4" d="M 103.5,50.5 C 104.5,50.5 105.5,50.5 106.5,50.5C 106.915,54.3751 106.415,58.0418 105,61.5C 103.585,58.0418 103.085,54.3751 103.5,50.5 Z"/></g>
<g><path style="opacity:1" fill="#eceff3" d="M 63.5,50.5 C 66.1873,50.3359 68.854,50.5026 71.5,51C 74.1667,54 74.1667,57 71.5,60C 68.854,60.4974 66.1873,60.6641 63.5,60.5C 63.5,57.1667 63.5,53.8333 63.5,50.5 Z"/></g>
<g><path style="opacity:1" fill="#e5e8f0" d="M 112.5,50.5 C 117.093,49.4183 120.093,51.085 121.5,55.5C 119.213,60.7969 115.713,61.7969 111,58.5C 110.109,55.5024 110.609,52.8357 112.5,50.5 Z"/></g>
<g><path style="opacity:1" fill="#e3e5ee" d="M 124.5,50.5 C 127.642,50.7993 129.809,52.4659 131,55.5C 131.494,53.8659 131.66,52.1992 131.5,50.5C 132.5,50.5 133.5,50.5 134.5,50.5C 134.915,54.3751 134.415,58.0418 133,61.5C 130.957,59.792 129.29,57.792 128,55.5C 127.506,57.1341 127.34,58.8008 127.5,60.5C 126.5,60.5 125.5,60.5 124.5,60.5C 124.5,57.1667 124.5,53.8333 124.5,50.5 Z"/></g>
<g><path style="opacity:1" fill="#eaedf3" d="M 36.5,50.5 C 37.5,50.5 38.5,50.5 39.5,50.5C 39.5,53.1667 39.5,55.8333 39.5,58.5C 40.5,58.5 41.5,58.5 42.5,58.5C 42.5,55.8333 42.5,53.1667 42.5,50.5C 43.5,50.5 44.5,50.5 45.5,50.5C 45.6646,53.5184 45.498,56.5184 45,59.5C 42.3333,60.8333 39.6667,60.8333 37,59.5C 36.502,56.5184 36.3354,53.5184 36.5,50.5 Z"/></g>
<g><path style="opacity:1" fill="#e0dfee" d="M 80.5,50.5 C 81.8221,50.33 82.9887,50.6634 84,51.5C 85.7411,54.3093 86.9078,57.3093 87.5,60.5C 85.6334,60.045 83.8001,59.3784 82,58.5C 80.5531,58.9452 79.2197,59.6119 78,60.5C 77.5,60.1667 77,59.8333 76.5,59.5C 78.12,56.5963 79.4533,53.5963 80.5,50.5 Z"/></g>
<g><path style="opacity:1" fill="#070faa" d="M 114.5,52.5 C 116.484,52.484 117.484,53.484 117.5,55.5C 116.167,59.5 114.833,59.5 113.5,55.5C 113.685,54.4163 114.018,53.4163 114.5,52.5 Z"/></g>
<g><path style="opacity:1" fill="#dfe0ee" d="M 50.5,50.5 C 52.7157,51.2026 54.549,52.5359 56,54.5C 56.49,53.2068 56.6567,51.8734 56.5,50.5C 57.5,50.5 58.5,50.5 59.5,50.5C 59.9155,54.3751 59.4155,58.0418 58,61.5C 55.9565,59.792 54.2899,57.792 53,55.5C 52.5065,57.1341 52.3398,58.8008 52.5,60.5C 51.5,60.5 50.5,60.5 49.5,60.5C 49.2529,57.0613 49.5863,53.728 50.5,50.5 Z"/></g>
<g><path style="opacity:1" fill="#2724ac" d="M 66.5,52.5 C 70.35,52.7007 71.35,54.5341 69.5,58C 68.552,58.4828 67.552,58.6495 66.5,58.5C 66.5,56.5 66.5,54.5 66.5,52.5 Z"/></g>
<g><path style="opacity:1" fill="#f2f3f5" d="M 104.5,66.5 C 106.48,78.4547 107.146,90.788 106.5,103.5C 103.934,103.656 101.434,103.322 99,102.5C 87.4867,106.83 80.6534,102.996 78.5,91C 78.5856,82.3152 82.9189,77.4818 91.5,76.5C 94.3873,76.627 96.8873,77.627 99,79.5C 99.1764,76.1182 99.6764,72.7848 100.5,69.5C 101.901,68.4793 103.235,67.4793 104.5,66.5 Z"/></g>
<g><path style="opacity:1" fill="#f0f2f6" d="M 60.5,71.5 C 66.6552,71.0501 71.6552,73.2168 75.5,78C 72.7552,81.1497 70.0885,81.483 67.5,79C 66.3333,78.8333 65.1667,78.6667 64,78.5C 62.0271,78.3094 60.5271,78.976 59.5,80.5C 63.9514,82.7646 68.6181,84.5979 73.5,86C 77.3316,95.1422 74.1649,99.9755 64,100.5C 58.8786,100.525 55.0453,98.3581 52.5,94C 53.7741,92.7792 55.2741,91.9459 57,91.5C 60.5216,94.1791 64.3549,94.8458 68.5,93.5C 68.719,92.325 68.3857,91.325 67.5,90.5C 64.4899,89.7308 61.4899,88.8974 58.5,88C 52.6869,85.8719 51.1869,82.0386 54,76.5C 55.9651,74.4497 58.1318,72.783 60.5,71.5 Z"/></g>
<g><path style="opacity:1" fill="#f2f3f6" d="M 119.5,76.5 C 131.52,75.8536 137.187,81.5202 136.5,93.5C 130.132,93.1703 123.798,93.5037 117.5,94.5C 121.025,99.4584 125.025,99.7918 129.5,95.5C 131.541,96.2357 133.541,97.0691 135.5,98C 129.658,104.914 122.658,106.247 114.5,102C 108.685,95.5199 108.019,88.5199 112.5,81C 114.76,79.2117 117.093,77.7117 119.5,76.5 Z"/></g>
<g><path style="opacity:1" fill="#f1f2f6" d="M 32.5,76.5 C 47.7289,76.8814 52.8956,84.2147 48,98.5C 40.0871,106.484 32.0871,106.484 24,98.5C 19.9768,88.2479 22.8101,80.9145 32.5,76.5 Z"/></g>
<g><path style="opacity:1" fill="#090fa7" d="M 119.5,83.5 C 123.596,82.7153 126.93,83.882 129.5,87C 125.459,87.8265 121.459,87.6599 117.5,86.5C 118.193,85.4822 118.859,84.4822 119.5,83.5 Z"/></g>
<g><path style="opacity:1" fill="#101cad" d="M 33.5,83.5 C 41.3223,83.1659 44.1556,86.8325 42,94.5C 38.0454,98.4892 34.0454,98.4892 30,94.5C 28.6631,89.8721 29.8298,86.2054 33.5,83.5 Z"/></g>
<g><path style="opacity:1" fill="#121dad" d="M 90.5,83.5 C 98.3306,84.1604 100.831,88.1604 98,95.5C 93.2669,98.6003 89.2669,97.9337 86,93.5C 85.0769,89.0165 86.5769,85.6832 90.5,83.5 Z"/></g>
<g><path style="opacity:1" fill="#f2f3f6" d="M 52.5,102.5 C 60.1197,106.442 67.7864,106.442 75.5,102.5C 79.8016,107.452 78.4682,110.285 71.5,111C 66.5,111.667 61.5,111.667 56.5,111C 53.8877,110.361 51.5543,109.194 49.5,107.5C 50.7629,105.971 51.7629,104.305 52.5,102.5 Z"/></g>
</svg>
