<?xml version="1.0" standalone="no"?>
<!DOCTYPE svg PUBLIC "-//W3C//DTD SVG 20010904//EN"
 "http://www.w3.org/TR/2001/REC-SVG-20010904/DTD/svg10.dtd">
<svg version="1.0" xmlns="http://www.w3.org/2000/svg"
 width="902.000000pt" height="266.000000pt" viewBox="0 0 902.000000 266.000000"
 preserveAspectRatio="xMidYMid meet">

<g transform="translate(0.000000,266.000000) scale(0.100000,-0.100000)"
fill="#000000" stroke="none">
<path d="M888 2218 l-3 -443 -442 -3 -443 -2 0 -440 0 -440 443 -2 442 -3 3
-442 2 -443 440 0 440 0 2 443 3 442 443 3 442 2 0 440 0 440 -442 2 -443 3
-3 443 -2 442 -440 0 -440 0 -2 -442z"/>
<path d="M3400 2210 c-105 -22 -202 -96 -249 -188 -77 -151 -32 -378 95 -475
75 -57 164 -81 283 -74 126 6 131 9 131 62 0 24 -3 46 -8 49 -4 2 -32 -2 -62
-10 -69 -18 -114 -18 -177 1 -233 69 -254 428 -31 525 65 29 164 31 222 7 22
-10 40 -16 42 -15 1 2 5 24 9 49 7 46 6 47 -27 58 -44 17 -172 22 -228 11z"/>
<path d="M7241 2210 c-90 -19 -184 -98 -222 -187 -66 -154 -28 -385 79 -473
73 -60 117 -74 232 -75 89 0 113 4 155 23 136 63 202 189 193 372 -8 156 -64
252 -182 310 -70 35 -174 47 -255 30z m198 -110 c76 -39 121 -121 129 -236 7
-103 -17 -176 -76 -235 -128 -128 -328 -69 -383 113 -18 59 -13 168 11 230 25
67 89 130 148 147 48 13 125 5 171 -19z"/>
<path d="M3840 1845 l0 -365 50 0 50 0 0 160 0 160 65 0 c85 0 94 -9 170 -184
l60 -136 57 0 c32 0 58 3 58 6 0 18 -136 294 -161 325 l-27 36 33 12 c94 34
132 174 71 263 -42 63 -133 87 -328 88 l-98 0 0 -365z m291 249 c35 -18 59
-67 52 -106 -9 -49 -54 -79 -135 -91 -109 -15 -108 -17 -108 108 l0 105 80 0
c54 0 91 -5 111 -16z"/>
<path d="M4540 1957 c0 -279 6 -321 59 -394 46 -64 106 -88 221 -88 86 0 100
3 147 29 50 27 80 63 113 131 11 23 15 90 18 303 l3 272 -49 0 -50 0 -4 -252
c-3 -246 -4 -254 -28 -303 -34 -68 -91 -99 -169 -91 -68 6 -99 28 -131 92 -24
48 -25 55 -28 302 l-4 252 -49 0 -49 0 0 -253z"/>
<path d="M5300 2160 l0 -50 175 0 c96 0 175 -2 175 -5 0 -3 -81 -121 -180
-262 -177 -254 -179 -259 -180 -310 l0 -53 250 0 250 0 0 45 0 45 -185 0
c-118 0 -185 4 -185 10 0 6 81 127 180 269 176 253 180 260 180 310 l0 51
-240 0 -240 0 0 -50z"/>
<path d="M6320 1845 l0 -365 55 0 55 0 0 160 0 160 59 0 c83 0 99 -17 169
-180 l59 -135 62 -3 61 -3 -24 53 c-72 162 -140 289 -157 299 -18 9 -15 13 31
36 86 43 115 144 70 238 -37 76 -128 104 -337 105 l-103 0 0 -365z m322 226
c26 -29 30 -39 25 -75 -4 -27 -15 -48 -31 -63 -27 -23 -104 -43 -166 -43 l-40
0 0 111 0 111 91 -4 c89 -3 91 -4 121 -37z"/>
<path d="M7998 1915 l-3 -295 -28 -27 c-24 -24 -35 -28 -88 -28 l-60 0 3 -45
3 -45 65 -3 c121 -6 190 43 210 148 5 29 10 174 10 321 l0 269 -55 0 -54 0 -3
-295z"/>
<path d="M8573 2193 c-4 -9 -73 -172 -154 -363 l-147 -345 45 -3 c25 -2 51 -1
57 1 7 3 27 44 46 91 l33 86 180 -2 179 -3 35 -87 35 -88 58 0 58 0 -153 363
-153 362 -56 3 c-46 2 -57 0 -63 -15z m194 -440 c-2 -2 -65 -2 -140 -1 l-135
3 62 155 c34 85 66 164 70 175 6 15 24 -20 77 -154 39 -95 68 -175 66 -178z"/>
<path d="M4777 1026 c-135 -48 -211 -176 -192 -324 17 -136 89 -217 222 -249
56 -14 80 -15 154 -6 49 7 93 14 99 18 6 4 10 65 10 156 l0 149 -105 0 -105 0
0 -35 0 -35 60 0 61 0 -3 -87 -3 -88 -60 -3 c-73 -4 -124 10 -165 45 -97 81
-103 247 -13 335 68 66 160 84 260 49 58 -20 63 -16 63 39 0 24 -5 29 -44 39
-61 15 -192 13 -239 -3z"/>
<path d="M3257 758 c-64 -150 -119 -281 -122 -290 -6 -16 -1 -18 37 -18 l44 0
30 73 29 72 141 3 140 3 29 -73 30 -73 48 -3 c27 -2 47 0 44 5 -2 4 -57 135
-123 291 l-118 282 -47 0 -46 0 -116 -272z m219 44 l51 -127 -105 -3 c-57 -1
-107 0 -110 2 -2 3 19 64 48 136 29 72 55 128 58 125 3 -3 29 -63 58 -133z"/>
<path d="M3940 740 l0 -290 45 0 45 0 0 130 0 130 44 0 c63 0 85 -24 141 -152
l48 -108 43 0 c24 0 44 5 44 10 0 17 -117 257 -129 264 -18 12 -13 23 19 36
65 27 91 130 50 198 -34 55 -85 72 -227 72 l-123 0 0 -290z m255 190 c31 -29
33 -82 6 -109 -23 -23 -81 -41 -133 -41 l-38 0 0 91 0 92 70 -5 c56 -4 76 -10
95 -28z"/>
<path d="M5370 740 l0 -290 165 0 165 0 0 40 0 40 -120 0 -120 0 0 95 0 95
110 0 110 0 0 35 0 35 -110 0 -110 0 0 85 0 85 120 0 120 0 0 35 0 35 -165 0
-165 0 0 -290z"/>
<path d="M5990 740 l0 -290 40 0 40 0 2 235 3 235 129 -235 129 -235 54 0 53
0 0 290 0 290 -40 0 -40 0 0 -227 c0 -149 -3 -224 -10 -217 -5 5 -63 106 -127
224 l-118 215 -58 3 -57 3 0 -291z"/>
<path d="M6680 995 l0 -35 90 0 90 0 0 -255 0 -255 40 0 40 0 0 255 0 255 90
0 90 0 0 35 0 35 -220 0 -220 0 0 -35z"/>
<path d="M7360 740 l0 -290 45 0 45 0 0 290 0 290 -45 0 -45 0 0 -290z"/>
<path d="M7750 740 l0 -290 40 0 40 0 2 238 3 237 130 -237 130 -238 53 0 52
0 0 290 0 290 -40 0 -40 0 0 -227 c-1 -182 -3 -225 -13 -212 -7 10 -64 112
-127 228 l-115 211 -57 0 -58 0 0 -290z"/>
<path d="M8682 1013 c-8 -15 -172 -395 -229 -531 l-14 -33 47 3 46 3 28 70 28
70 142 0 142 0 28 -70 28 -70 47 -3 c41 -3 46 -1 41 15 -3 10 -57 140 -120
288 l-114 270 -46 3 c-35 2 -47 -1 -54 -15z m103 -199 c28 -70 52 -131 53
-135 2 -5 -47 -9 -108 -9 -61 0 -110 4 -108 9 48 125 104 261 108 261 3 0 28
-57 55 -126z"/>
</g>
</svg>
